<?xml version="1.0" encoding="utf-8"?>
<!-- Generator: Adobe Illustrator 25.3.1, SVG Export Plug-In . SVG Version: 6.00 Build 0)  -->
<svg version="1.1" id="Layer_1" xmlns="http://www.w3.org/2000/svg" xmlns:xlink="http://www.w3.org/1999/xlink" x="0px" y="0px"
	 viewBox="0 0 245 161" style="enable-background:new 0 0 245 161;" xml:space="preserve">
<style type="text/css">
	.st0{fill:#277EE0;}
	.st1{fill-rule:evenodd;clip-rule:evenodd;fill:#FFFFFF;}
	.st2{fill:#E87073;}
	.st3{fill:#44D5A7;}
	.st4{fill:#DEF0FF;}
</style>
<g id="Success_Check">
	<g id="Group_456" transform="translate(-597 -129)">
		<circle id="Ellipse_11" class="st0" cx="719.5" cy="244.4" r="46"/>
		<path id="_103184_checkmark_yes_ok_check_icon" class="st1" d="M738.8,227.6c-0.6-0.6-1.5-0.6-2,0c0,0,0,0,0,0l-21.3,21.2
			c-0.5,0.6-1.4,0.6-2,0c0,0,0,0,0,0l-9.3-9.5c-0.6-0.6-1.5-0.6-2,0c0,0,0,0,0,0l-4.1,3.7c-0.3,0.3-0.4,0.6-0.4,1
			c0,0.4,0.2,0.8,0.4,1l9.4,9.9c0.6,0.6,1.5,1.5,2,2l4,4.1c0.6,0.6,1.5,0.6,2,0l27.4-27.3c0.6-0.6,0.6-1.5,0-2L738.8,227.6z"/>
		<g id="Group_453" transform="translate(-3.463 5)">
			<circle id="Ellipse_14" class="st2" cx="603.3" cy="235.2" r="2.9"/>
			<circle id="Ellipse_13" class="st3" cx="842.6" cy="235.2" r="2.9"/>
		</g>
		<circle id="Ellipse_15" class="st3" cx="623" cy="183.3" r="2.9"/>
		<circle id="Ellipse_18" class="st4" cx="810.7" cy="183.3" r="2.9"/>
		<circle id="Ellipse_17" class="st0" cx="747.8" cy="180.7" r="2.9"/>
		<path id="Path_353" class="st4" d="M778.4,147.7l3.3,1.8c0.7,0.4,1,1.3,0.6,2c-0.1,0.2-0.3,0.5-0.6,0.6l-3.3,1.8
			c-0.2,0.1-0.5,0.3-0.6,0.6l-1.8,3.3c-0.4,0.7-1.3,1-2,0.6c-0.2-0.1-0.5-0.3-0.6-0.6l-1.8-3.3c-0.1-0.2-0.3-0.5-0.6-0.6l-3.3-1.8
			c-0.7-0.4-1-1.3-0.6-2c0.1-0.2,0.3-0.5,0.6-0.6l3.3-1.8c0.2-0.1,0.5-0.3,0.6-0.6l1.8-3.3c0.4-0.7,1.3-1,2-0.6
			c0.2,0.1,0.5,0.3,0.6,0.6l1.8,3.3C778,147.4,778.2,147.6,778.4,147.7z"/>
		<path id="Path_361" class="st4" d="M787,232.7l2,1.1c0.4,0.2,0.6,0.8,0.4,1.2c-0.1,0.1-0.2,0.3-0.4,0.4l-2,1.1
			c-0.1,0.1-0.3,0.2-0.4,0.4l-1.1,2c-0.2,0.4-0.8,0.6-1.2,0.4c-0.1-0.1-0.3-0.2-0.4-0.4l-1.1-2c-0.1-0.1-0.2-0.3-0.4-0.4l-2-1.1
			c-0.4-0.2-0.6-0.8-0.4-1.2c0.1-0.1,0.2-0.3,0.4-0.4l2-1.1c0.1-0.1,0.3-0.2,0.4-0.4l1.1-2c0.2-0.4,0.8-0.6,1.2-0.4
			c0.1,0.1,0.3,0.2,0.4,0.4l1.1,2C786.7,232.4,786.8,232.6,787,232.7z"/>
		<path id="Path_355" class="st0" d="M680,136l-14.4,7.1l-1.7,6.2l14.8-8.6L680,136z"/>
		<path id="Path_359" class="st2" d="M788.8,211.3l15.7-3.4l3.1-5.6l-16.5,4.8L788.8,211.3z"/>
		<g id="Group_451" transform="translate(680.91 190.574) rotate(-98)">
			<path id="Path_357" class="st3" d="M16.4,39.5l-2-1.3c1.8-2.8,2.1-6.6,1.1-11.8c-0.3-1.8-0.9-3.5-1.7-5.1
				c-0.2,0.2-0.4,0.4-0.5,0.6c-2,2.1-5.2,2.5-7.7,1.1c-0.6-0.4-1.1-0.9-1.5-1.5c-1-1.9-0.4-4.1,1.2-5.4c1.5-1.1,3.4-1.4,5.2-0.8
				c1.1,0.3,2.1,0.8,2.9,1.6c0.1-0.7,0.2-1.4,0.2-2.1c0-1.4-0.4-2.7-1.2-3.8l-0.2,0.2c-1.9,2.8-5.5,3.1-8.1,2.4
				c-0.3-0.1-0.7-0.2-0.9-0.5c-0.5-0.5-0.7-1.2-0.6-1.9c0.3-1.4,1.1-2.6,2.2-3.4C6.2,7.1,7.9,6.8,9.5,7c0.4,0,0.8,0.1,1.2,0.2
				C10.2,5.8,9.3,4.5,8,3.8C5.6,2.3,2.4,2.3-0.3,2.3l0-2.4c2.9,0,6.6,0,9.6,1.8c1.8,1.1,3.2,2.9,3.7,5c0.1,0.5,0.2,1.1,0.2,1.6
				c1.8,1.6,2.9,3.9,2.8,6.4c0,1.4-0.2,2.9-0.7,4.2c1.3,2.1,2.2,4.5,2.6,7C19,31.9,18.5,36.2,16.4,39.5z M8.6,17.4
				c-0.7,0-1.3,0.2-1.9,0.6c-0.7,0.5-1,1.5-0.6,2.3c0.2,0.3,0.4,0.5,0.7,0.7c1.6,0.8,3.6,0.5,4.9-0.8c0.3-0.3,0.6-0.6,0.8-1
				c-0.7-0.8-1.6-1.4-2.6-1.7C9.4,17.5,9,17.4,8.6,17.4L8.6,17.4z M4.9,11.4c1.8,0.4,4.2,0.3,5.4-1.4c0.1-0.1,0.1-0.2,0.2-0.3
				C10,9.5,9.6,9.4,9.2,9.4C8.1,9.2,7,9.3,6,9.8C5.5,10.2,5.1,10.8,4.9,11.4L4.9,11.4z"/>
		</g>
		<g id="Group_452" transform="translate(632.846 238.797) rotate(-98)">
			<path id="Path_358" class="st4" d="M19,7.8l5.6,3c1.2,0.7,1.7,2.2,1,3.4c-0.2,0.4-0.6,0.8-1,1l-5.6,3c-0.4,0.2-0.8,0.6-1,1
				l-3,5.6c-0.7,1.2-2.2,1.7-3.4,1c-0.4-0.2-0.8-0.6-1-1l-3-5.6c-0.2-0.4-0.6-0.8-1-1l-5.6-3c-1.2-0.7-1.7-2.2-1-3.4
				c0.2-0.4,0.6-0.8,1-1l5.6-3c0.4-0.2,0.8-0.6,1-1l3-5.6c0.7-1.2,2.2-1.7,3.4-1c0.4,0.2,0.8,0.6,1,1l3,5.6
				C18.3,7.2,18.6,7.6,19,7.8z"/>
		</g>
		<g id="Group_454" transform="translate(-108.015 -115.916)">
			<path id="Path_360" class="st2" d="M839,254.6c1-6.6-6.9-9.4-6.9-9.4l-1.6,4.2c4.7,1.2,5.2,7.6,5.2,7.6L839,254.6z"/>
		</g>
	</g>
</g>
</svg>
